<svg width="24" height="24" viewBox="0 0 24 24" fill="none" xmlns="http://www.w3.org/2000/svg">
<path fill-rule="evenodd" clip-rule="evenodd" d="M4.25 7C4.25 6.0335 5.0335 5.25 6 5.25H18C18.9665 5.25 19.75 6.0335 19.75 7V18C19.75 18.9665 18.9665 19.75 18 19.75H6C5.0335 19.75 4.25 18.9665 4.25 18V7ZM6 6.75C5.86193 6.75 5.75 6.86193 5.75 7V18C5.75 18.1381 5.86193 18.25 6 18.25H18C18.1381 18.25 18.25 18.1381 18.25 18V7C18.25 6.86193 18.1381 6.75 18 6.75H6Z" fill="#9399AB"/>
<path fill-rule="evenodd" clip-rule="evenodd" d="M18.937 7.5C18.9781 7.65981 19 7.82735 19 8V9H5V8C5 7.82735 5.02188 7.65981 5.06301 7.5C5.28503 6.63739 6.06808 6 7 6H17C17.9319 6 18.715 6.63739 18.937 7.5Z" fill="#9399AB"/>
<path fill-rule="evenodd" clip-rule="evenodd" d="M8 3.25C8.41421 3.25 8.75 3.58579 8.75 4V6C8.75 6.41421 8.41421 6.75 8 6.75C7.58579 6.75 7.25 6.41421 7.25 6V4C7.25 3.58579 7.58579 3.25 8 3.25Z" fill="#9399AB"/>
<path fill-rule="evenodd" clip-rule="evenodd" d="M16 3.25C16.4142 3.25 16.75 3.58579 16.75 4V6C16.75 6.41421 16.4142 6.75 16 6.75C15.5858 6.75 15.25 6.41421 15.25 6V4C15.25 3.58579 15.5858 3.25 16 3.25Z" fill="#9399AB"/>
<rect x="8" y="11" width="3" height="3" rx="0.5" fill="#9399AB"/>
</svg>
