<svg width="24" height="24" viewBox="0 0 24 24" fill="none" xmlns="http://www.w3.org/2000/svg">
<path fill-rule="evenodd" clip-rule="evenodd" d="M12 8.0415C12.3452 8.0415 12.625 8.32133 12.625 8.6665V11.741L14.1086 13.2246C14.3527 13.4686 14.3527 13.8644 14.1086 14.1084C13.8645 14.3525 13.4688 14.3525 13.2247 14.1084L11.5581 12.4418C11.4408 12.3246 11.375 12.1656 11.375 11.9998V8.6665C11.375 8.32133 11.6548 8.0415 12 8.0415Z" fill="#9399AB"/>
<path fill-rule="evenodd" clip-rule="evenodd" d="M16.5234 17.1067C15.2507 18.2174 13.6136 18.8206 11.9245 18.8013C10.2354 18.782 8.61257 18.1415 7.36554 17.0021C6.11852 15.8626 5.33464 14.304 5.16346 12.6235C5.12848 12.2801 4.82174 12.03 4.47834 12.065C4.13494 12.1 3.88491 12.4067 3.91989 12.7501C4.1222 14.7362 5.0486 16.5783 6.52236 17.9249C7.99612 19.2715 9.91406 20.0284 11.9103 20.0512C13.9065 20.074 15.8412 19.3611 17.3453 18.0485C18.8495 16.7359 19.8177 14.9155 20.0653 12.9345C20.3129 10.9536 19.8226 8.95087 18.6879 7.3084C17.5531 5.66593 15.8534 4.4987 13.913 4.02943C11.9726 3.56015 9.92735 3.82167 8.16746 4.7641C6.93883 5.42202 5.90933 6.37966 5.16667 7.5359V5.18679C5.16667 4.84161 4.88685 4.56179 4.54167 4.56179C4.1965 4.56179 3.91667 4.84161 3.91667 5.18679V9.35346C3.91667 9.69864 4.1965 9.97846 4.54167 9.97846H4.94378C4.95347 9.97869 4.96315 9.97868 4.9728 9.97846H8.70834C9.05352 9.97846 9.33334 9.69864 9.33334 9.35346C9.33334 9.00828 9.05352 8.72846 8.70834 8.72846H5.91728C6.55338 7.51806 7.53989 6.5181 8.75755 5.86604C10.2467 5.06861 11.9773 4.84732 13.6192 5.2444C15.261 5.64148 16.6993 6.62913 17.6594 8.01892C18.6196 9.4087 19.0345 11.1033 18.825 12.7795C18.6155 14.4557 17.7962 15.996 16.5234 17.1067Z" fill="#9399AB"/>
</svg>
