<svg width="36" height="36" viewBox="0 0 36 36" fill="none" xmlns="http://www.w3.org/2000/svg">
<circle cx="18" cy="18" r="18" fill="#32384A"/>
<path fill-rule="evenodd" clip-rule="evenodd" d="M13 10C13 8.89543 13.8954 8 15 8H21C22.1046 8 23 8.89543 23 10V12H26C27.1046 12 28 12.8954 28 14V24C28 25.6569 26.6569 27 25 27H11C9.34315 27 8 25.6569 8 24V14C8 12.8954 8.89543 12 10 12H13V10ZM15 12H21V10.25C20.9647 10.203 20.926 10.1582 20.8839 10.1161C20.8418 10.074 20.7971 10.0353 20.75 10H15.25C15.203 10.0353 15.1582 10.074 15.1161 10.1161C15.0741 10.1582 15.0353 10.203 15 10.25V12ZM10 20.7957V24C10 24.5523 10.4477 25 11 25H25C25.5523 25 26 24.5523 26 24V20.7957C23.9813 21.3124 20.7742 22 18 22C15.2258 22 12.0187 21.3124 10 20.7957ZM16 18C16 17.4477 16.4477 17 17 17H19C19.5523 17 20 17.4477 20 18C20 18.5523 19.5523 19 19 19H17C16.4477 19 16 18.5523 16 18Z" fill="white"/>
</svg>
