<svg width="36" height="36" viewBox="0 0 36 36" fill="none" xmlns="http://www.w3.org/2000/svg">
<circle cx="18" cy="18" r="18" fill="#DAB267"/>
<path d="M18 8C15.4918 8 13.4585 9.98985 13.4585 12.4444V13.5556C13.4585 16.0102 15.4918 18 18 18C20.5082 18 22.5414 16.0102 22.5414 13.5556V12.4444C22.5414 9.98985 20.5082 8 18 8Z" fill="white"/>
<path d="M15.4454 20.2222C12.7412 20.2222 10.3641 21.593 9 23.6632C11.0759 26.3007 14.3352 28 18 28C21.6648 28 24.9241 26.3007 27 23.6632C25.6359 21.593 23.2588 20.2222 20.5546 20.2222H15.4454Z" fill="white"/>
</svg>
