<svg width="24" height="24" viewBox="0 0 24 24" fill="none" xmlns="http://www.w3.org/2000/svg">
<circle cx="12" cy="12" r="10" fill="#F6F7F9"/>
<path fill-rule="evenodd" clip-rule="evenodd" d="M11.6666 8.0835C11.2126 8.0835 10.796 8.23913 10.5048 8.48873C10.2172 8.73526 10.0833 9.04256 10.0833 9.3335C10.0833 9.74771 9.74753 10.0835 9.33331 10.0835C8.9191 10.0835 8.58331 9.74771 8.58331 9.3335C8.58331 8.56356 8.94109 7.85346 9.52864 7.34984C10.1126 6.84929 10.883 6.5835 11.6666 6.5835H12.3333C13.1169 6.5835 13.8873 6.84929 14.4713 7.34984C15.0534 7.84877 15.41 8.55037 15.4166 9.31203C15.4454 9.90005 15.2848 10.482 14.958 10.9722C14.6358 11.4554 14.1692 11.8239 13.6254 12.0254C13.4049 12.1372 13.1765 12.3593 13.0035 12.7054C12.8241 13.0641 12.7297 13.5086 12.7493 13.9683C12.7669 14.3821 12.4457 14.7319 12.0319 14.7495C11.618 14.7671 11.2683 14.4459 11.2507 14.032C11.2211 13.3375 11.3603 12.6377 11.6619 12.0346C11.9629 11.4325 12.4255 10.9308 13.0149 10.6544C13.0376 10.6438 13.0609 10.6343 13.0845 10.626C13.3401 10.5361 13.5596 10.3656 13.7099 10.1401C13.8602 9.91467 13.9332 9.64649 13.9179 9.37597C13.917 9.36182 13.9166 9.34766 13.9166 9.3335C13.9166 9.04256 13.7828 8.73526 13.4951 8.48873C13.2039 8.23913 12.7874 8.0835 12.3333 8.0835H11.6666Z" fill="#9399AB"/>
<path fill-rule="evenodd" clip-rule="evenodd" d="M12 15.9169C12.4142 15.9169 12.75 16.2527 12.75 16.6669V16.6736C12.75 17.0878 12.4142 17.4236 12 17.4236C11.5858 17.4236 11.25 17.0878 11.25 16.6736V16.6669C11.25 16.2527 11.5858 15.9169 12 15.9169Z" fill="#9399AB"/>
</svg>
