<svg width="24" height="24" viewBox="0 0 24 24" fill="none" xmlns="http://www.w3.org/2000/svg">
<path fill-rule="evenodd" clip-rule="evenodd" d="M5.09878 7.09878C5.56222 6.63535 6.19076 6.375 6.84615 6.375H10.4615C10.8067 6.375 11.0865 6.65482 11.0865 7C11.0865 7.34518 10.8067 7.625 10.4615 7.625H6.84615C6.52228 7.625 6.21168 7.75366 5.98267 7.98267C5.75366 8.21168 5.625 8.52228 5.625 8.84615V17.1538C5.625 17.4777 5.75366 17.7883 5.98267 18.0173C6.21168 18.2463 6.52228 18.375 6.84615 18.375H15.1538C15.4777 18.375 15.7883 18.2463 16.0173 18.0173C16.2463 17.7883 16.375 17.4777 16.375 17.1538V13.5385C16.375 13.1933 16.6548 12.9135 17 12.9135C17.3452 12.9135 17.625 13.1933 17.625 13.5385V17.1538C17.625 17.8092 17.3646 18.4378 16.9012 18.9012C16.4378 19.3646 15.8092 19.625 15.1538 19.625H6.84615C6.19076 19.625 5.56221 19.3646 5.09878 18.9012C4.63535 18.4378 4.375 17.8092 4.375 17.1538V8.84615C4.375 8.19076 4.63535 7.56222 5.09878 7.09878Z" fill="#9399AB"/>
<path fill-rule="evenodd" clip-rule="evenodd" d="M18.4419 5.55806C18.686 5.80214 18.686 6.19786 18.4419 6.44194L10.4419 14.4419C10.1979 14.686 9.80214 14.686 9.55806 14.4419C9.31398 14.1979 9.31398 13.8021 9.55806 13.5581L17.5581 5.55806C17.8021 5.31398 18.1979 5.31398 18.4419 5.55806Z" fill="#9399AB"/>
<path fill-rule="evenodd" clip-rule="evenodd" d="M13.875 5.33301C13.875 4.98783 14.1548 4.70801 14.5 4.70801H18.6667C19.0118 4.70801 19.2917 4.98783 19.2917 5.33301V9.49967C19.2917 9.84485 19.0118 10.1247 18.6667 10.1247C18.3215 10.1247 18.0417 9.84485 18.0417 9.49967V5.95801H14.5C14.1548 5.95801 13.875 5.67819 13.875 5.33301Z" fill="#9399AB"/>
</svg>
