<svg width="24" height="24" viewBox="0 0 24 24" fill="none" xmlns="http://www.w3.org/2000/svg">
<path fill-rule="evenodd" clip-rule="evenodd" d="M12 4.4165C7.81183 4.4165 4.41666 7.81168 4.41666 11.9998C4.41666 16.188 7.81183 19.5832 12 19.5832C12.4142 19.5832 12.75 19.919 12.75 20.3332C12.75 20.7474 12.4142 21.0832 12 21.0832C6.9834 21.0832 2.91666 17.0164 2.91666 11.9998C2.91666 6.98325 6.9834 2.9165 12 2.9165C17.0166 2.9165 21.0833 6.98325 21.0833 11.9998C21.0833 12.4141 20.7475 12.7498 20.3333 12.7498C19.9191 12.7498 19.5833 12.4141 19.5833 11.9998C19.5833 7.81168 16.1882 4.4165 12 4.4165Z" fill="#9399AB"/>
</svg>
