<svg width="28" height="28" viewBox="0 0 28 28" fill="none" xmlns="http://www.w3.org/2000/svg">
<circle cx="14" cy="13.9998" r="12.8333" fill="#B9966E"/>
<path d="M18.2446 10.415C18.2446 8.07116 16.3444 6.17041 13.9994 6.17041C11.6556 6.17041 9.75544 8.07116 9.75544 10.415C9.75544 12.7593 11.6556 14.6595 13.9994 14.6595C16.3444 14.6595 18.2446 12.7593 18.2446 10.415Z" fill="white"/>
<path d="M7.86371 22.3815C9.51588 23.7912 11.6579 24.643 13.9966 24.643C16.3359 24.643 18.4785 23.7912 20.1301 22.3809C20.5331 22.0376 20.7642 21.5354 20.7642 21.0066C20.7642 18.6296 18.8477 16.7271 16.4695 16.7271H11.5305C9.15286 16.7271 7.229 18.6296 7.229 21.0066C7.229 21.5348 7.46124 22.0382 7.86371 22.3815Z" fill="white"/>
</svg>
